<svg xmlns="http://www.w3.org/2000/svg" viewBox="0 0 475 80" width="475" height="80">
  <!--
    NexFolia Combined Logo — icon + wordmark
    Colors: Deep Teal #0D5C63, Forest Green #2E8B57
  -->

  <!-- Icon group: shift from original viewBox origin (55,65) to (0,0) -->
  <g transform="translate(-55, -65)">
    <!-- Right bracket inner hook — teal (behind right bracket green base) -->
    <path d="M110.775 108.161 C 109.888 109.336,108.643 110.974,108.009 111.799 L 106.856 113.301 108.151 115.249 C 112.036 121.093,113.967 121.903,124.027 121.903 L 130.476 121.903 130.476 117.407 L 130.476 112.912 124.739 112.912 C 117.053 112.912,117.978 113.419,113.019 106.482 C 112.542 105.814,112.555 105.804,110.775 108.161"
          fill="#0D5C63" stroke="none"/>

    <!-- Left bracket outer — solid Forest Green -->
    <path d="M59.383 80.280 L 59.383 84.893 68.559 84.893 C 80.485 84.893,80.097 84.772,83.041 89.393 C 83.887 90.721,85.314 92.933,86.212 94.309 C 87.111 95.685,87.800 96.885,87.743 96.975 C 87.447 97.454,82.041 105.008,81.380 105.866 C 80.602 106.875,79.352 107.781,77.993 108.319 C 77.427 108.543,75.240 108.634,68.374 108.721 L 59.488 108.834 59.431 113.184 L 59.375 117.534 69.468 117.464 L 79.561 117.393 81.102 116.829 C 84.821 115.467,87.154 113.623,89.569 110.133 C 90.874 108.246,92.356 106.171,94.302 103.502 C 95.183 102.295,96.360 100.648,96.919 99.843 C 97.477 99.038,98.117 98.129,98.340 97.823 L 98.745 97.266 98.083 96.150 C 97.719 95.536,97.001 94.375,96.488 93.570 C 95.975 92.765,95.285 91.683,94.956 91.166 C 94.626 90.648,93.122 88.240,91.613 85.813 C 87.976 79.965,86.722 78.628,83.429 77.088 C 80.752 75.835,80.654 75.826,69.577 75.743 L 59.383 75.667 59.383 80.280"
          fill="#2E8B57" stroke="none"/>

    <!-- Left bracket inner hook — Deep Teal overlay -->
    <path d="M59.854 88.377 C 59.384 88.476,59.383 88.484,59.383 92.842 L 59.383 97.207 65.620 97.270 L 71.856 97.334 72.619 97.857 C 73.291 98.317,74.229 99.446,76.779 102.859 C 77.750 104.158,77.614 104.244,80.554 100.470 C 83.698 96.434,83.567 97.114,81.728 94.394 C 79.631 91.291,77.686 89.710,74.752 88.725 C 73.731 88.382,61.215 88.090,59.854 88.377"
          fill="#0D5C63" stroke="none"/>

    <!-- Right bracket outer — solid Forest Green -->
    <path d="M111.866 91.940 C 107.680 92.664,104.630 94.794,101.620 99.097 C 100.643 100.494,98.792 103.084,97.508 104.851 C 91.826 112.668,91.539 113.125,91.931 113.730 C 92.124 114.027,92.517 114.647,92.805 115.107 C 93.092 115.567,93.537 116.273,93.792 116.675 C 94.048 117.078,95.453 119.336,96.914 121.694 C 102.173 130.176,103.450 131.570,107.460 133.202 C 109.894 134.192,110.795 134.259,120.962 134.194 L 130.371 134.135 130.359 129.848 L 130.347 125.562 121.368 125.447 C 109.822 125.300,110.062 125.384,106.964 120.405 C 106.510 119.676,105.311 117.823,104.298 116.287 C 102.073 112.912,102.009 113.739,104.794 109.935 C 106.080 108.180,107.688 105.962,108.367 105.007 C 111.392 100.756,110.915 100.906,121.641 100.827 L 130.267 100.763 130.267 96.278 L 130.267 91.793 121.328 91.821 C 116.411 91.837,112.154 91.891,111.866 91.940"
          fill="#2E8B57" stroke="none"/>

    <!-- Right bracket upper corridor — Deep Teal overlay -->
    <path d="M 101.5 101.5
             C 100.425 100.792, 101.132 99.796, 101.620 99.097
             C 104.630 94.794, 107.680 92.664, 111.866 91.940
             C 112.154 91.891, 116.411 91.837, 121.328 91.821
             L 130.267 91.793
             L 130.267 100.763
             L 121.641 100.827
             C 110.915 100.906, 111.392 100.756, 106.35 107.75
             L 101.5 101.5
             Z"
          fill="#0D5C63" stroke="none"/>
  </g>

  <!-- Wordmark group: scale 1.55x and position right of icon, vertically centered -->
  <g transform="translate(100, 3.4) scale(1.55)">
    <text x="0" y="38"
          font-family="Inter, Outfit, 'Segoe UI', system-ui, sans-serif"
          font-size="40" font-weight="400" letter-spacing="0.02em">
      <tspan fill="#0D5C63">Nex</tspan><tspan fill="#2E8B57">Folia</tspan>
    </text>
  </g>
</svg>
